<svg version="1.1" id="Layer_1" xmlns="http://www.w3.org/2000/svg" x="0" y="0" width="220.8" height="46.4" viewBox="0 0 220.8 46.4" xml:space="preserve"><style type="text/css">.st0{fill:#006595}.st1{fill:#439539}</style><path class="st0" d="M51 6.4c2.1 0 4 .1 6.1.1 2.2 0 4.4-.1 6.6-.1l-.4 1.3-3 1.6v11.4c0 7.5.1 12.1.2 12.6l3.9 1.6L64 36c-2.3 0-4.7-.1-7.1-.1-2.3 0-4.7.1-7 .1l.4-1.3 3.3-1.7c.2-.5.3-5.1.3-12.5V9.2l-3.3-1.6.4-1.2zm17.2 13.2L66 18.4l.4-1c.7-.6 6.9-2 8-2l-.4 3.3.1.1c2.4-1.8 4.8-3.4 6.7-3.4 4.9 0 6.4 3.9 6.4 7.1v10c0 .5.3.8.9 1.1l2.3 1.1-.3 1.3H78.8l.2-1.3 1.8-1.4c.1-1.3.2-4.4.2-10 0-2.7-1.2-4.1-3.3-4.1-1.1 0-2.2.5-3.4 1.4 0 3.5 0 11.9.1 12.7l2.2 1.4-.2 1.3H65.3l.3-1.3 2.4-1.4c.1-.6.1-4.9.1-10l.1-3.7zm31.2-4.2c1 0 2.3.3 3.5 1.1.8-.5 1.7-1 2.7-1.3l.5.2c-.2 2.2-.7 5.2-1.1 6.2l-.8.3c-.6-.9-1.3-2.3-1.7-3.5-.3-.2-1.1-.9-2.6-.9-2 0-2.8 1.3-2.8 2.3 0 .8.5 1.6 1.7 2.2 2.3 1.1 3.7 1.8 5.4 2.7 2.6 1.4 3.2 3 3.2 4.9 0 5.7-5.7 6.9-9 6.9-2.7 0-5.6-1-6.7-1.8 0-1.4.8-4.9 1.1-5.7l.7-.3c.8 1.3 2 4 2.8 5.6.7.3 1.4.4 2.4.4 2 0 3.4-1.3 3.4-2.7 0-.9-.4-1.5-1.6-2.2-1.1-.6-2.4-1.3-3.9-2-2.8-1.3-4.5-3.1-4.5-6-.1-3.1 2.3-6.4 7.3-6.4zm17.1 2.6h.1c3.1-1.9 4.6-2.6 5.6-2.6 3.7 0 8.8 3.3 8.8 9.6 0 8.3-6.5 11.5-10.8 11.5-.6 0-1.7-.4-3.5-1.3h-.1c0 2.4.1 5.6.2 7.3l4.1 1.6-.3 1.3h-12.9l.4-1.4 2.2-1.3c.1-1 .2-5.3.2-11.8V19.2l-2.5-1.6.3-1.1c.6-.2 5.9-1.1 8.3-1.1l-.1 2.6zm.2 15.4c.6.3 1.2.4 2 .4 3 0 6-2.7 6-7.6 0-4.8-3.1-7.1-5.9-7.1-.6 0-1.3.1-2.2.5l.1 13.8zm22.8-7.5v.6c0 4.2 2.6 7.1 6.2 7.1.4 0 .7 0 1.1-.1 1.4-1.1 3.5-2.5 4.5-3l.3.8c-.3 1.7-2.6 3.9-3.5 4.4-.8.3-2.9.9-4.7.9-6.3 0-10.4-3.9-10.4-10.3 0-6.2 4.8-10.8 10.4-10.8 4.8 0 8.6 3 8.6 8.2 0 .7-.2 1.3-.5 1.4-.4.2-2.1.9-4.8.9l-7.2-.1zm6.2-2c.1-.3.3-.9.3-1.4 0-3.1-1-5.2-2.8-5.2-2.3 0-3.6 4-3.7 6.6h6.2zm8.4-6.7c.7-.4 5.7-1.7 7.7-1.8.2.9.5 3.1.4 3.8h.1c1.4-2.1 3.5-3.8 5.7-3.8 1.2 0 2 .4 2.6.9-.1 1.3-1.3 4.7-2.2 6.2l-.8.2c-.5-.8-1-1.4-1.9-3.3-.2-.1-.4-.2-.7-.2-.9 0-2.1 1-2.7 2.2v11.7l4.5 1.4-.3 1.3h-13.1l.1-1.3 2.5-1.4c.2-4.6.2-11.9.2-13.7l-2.4-1.2.3-1zm18.2-.3c.7-.2 4.9-1.2 8.3-1.4v9.3c0 5 0 7.5.1 8.5l3 1.4-.3 1.3h-11.7l.2-1.3 2.4-1.4c0-1.6.1-5.1.1-8.6v-5.5L172 18l.3-1.1zm44.1-.8h-3.1l-.5 1.2 1.8 1.5c-.5 1.8-1.9 6.2-2.9 9.1-1.6-3.8-3.5-7-4.4-9.3l1.2-1.3.2-1.3h-15.8l.2-6.5c-.6 0-3 .5-3.9 1.1-.8.9-2.1 4.3-2.4 5.5h-2.2l-.7 1.8 2.8.8V30c0 2.7.3 3.7 1 4.7 1.1 1.3 2.9 2.1 5.3 2.1 2.8 0 5.2-1.3 6.2-3v-1.6l-.2-.1c-.8.6-2 1.2-3.6 1.2-.8 0-1.7-.3-2.1-.7-.2-.3-.4-.7-.4-1.8v-12l5-.9c1.4 0 2.5 1 2.8 1.5 1.9 4 6.8 16 7.3 17.1-.3.9-1 2.3-1.4 3.1-2.1 1.7-4.3 3.9-4.6 4.6.4.8 2.3 2.3 4.2 2.3.4 0 .8 0 1-.2.3-1.3.5-2.5 1.3-5.5 2.9-6.9 7.7-19 9.1-21.9 1-.5 1.8-1.1 2.7-1.6l.4-1.3c-1.2 0-2.6.1-4.3.1zm-35.9-7c0 1.9-1.5 3.5-3.3 3.5-1.8 0-3.3-1.6-3.3-3.5s1.5-3.5 3.3-3.5c1.8.1 3.3 1.6 3.3 3.5"/><path class="st1" d="M28.7 13c-1.8.1-2.8-.4-4-1.2l.3 2.1c1.2.6 2.6.6 3.2.6-.1.6 0 2 .6 3.2l2.2.3c-.8-1.2-1.3-2.2-1.3-4 0-.7-.4-1-1-1z"/><path class="st1" d="M31.9 10.8c-2.4.3-5.1-.3-7.7-2.2l-.3-2.7c2.5 1.7 4.7 3.1 8.4 3 1.2 0 1.6.3 1.5 1.5-.1 3.6 1.3 5.9 3 8.3l-2.7-.3c-1.8-2.5-2.5-5.2-2.2-7.6z"/><path class="st1" d="M36 6.7c-2.2.5-7 .3-12.5-3.9-.2-2-.3-2.8-.3-2.8 2.4 2 7.3 5.2 12.8 4.8 1.7-.1 2.1.2 1.9 1.9-.4 5.5 2.8 10.3 4.9 12.7 0 0-.9-.1-2.8-.3-4.3-5.4-4.5-10.2-4-12.4zm-6.3 21.8c-.1-1.8.4-2.8 1.2-4l-2.2.3c-.6 1.2-.6 2.6-.6 3.2-.6-.1-2 0-3.2.6l-.3 2.2c1.2-.8 2.2-1.3 4.1-1.3.6-.1 1-.4 1-1z"/><path class="st1" d="M31.9 31.7c-.3-2.4.3-5.1 2.2-7.6l2.7-.3c-1.7 2.5-3.2 4.7-3 8.3 0 1.2-.3 1.6-1.5 1.5-3.7-.1-5.9 1.3-8.4 3l.3-2.7c2.6-1.8 5.3-2.5 7.7-2.2z"/><path class="st1" d="M36 35.7c-.5-2.2-.2-6.9 4-12.4 2-.2 2.8-.3 2.8-.3-2 2.4-5.3 7.2-4.9 12.7.1 1.7-.2 2-1.9 1.9-5.6-.4-10.4 2.8-12.8 4.8 0 0 .1-.9.3-2.8 5.5-4.2 10.3-4.3 12.5-3.9zm-21.9-6.3c1.8-.1 2.8.4 4 1.2l-.3-2.1c-1.2-.6-2.6-.6-3.2-.6.1-.6 0-2-.6-3.2l-2.2-.3c.8 1.2 1.3 2.2 1.3 4 0 .7.4 1 1 1z"/><path class="st1" d="M10.9 31.7c2.4-.3 5.1.3 7.7 2.2l.3 2.7c-2.5-1.7-4.7-3.1-8.4-3-1.2 0-1.6-.3-1.5-1.5.1-3.6-1.3-5.9-3-8.3l2.6.2c1.9 2.6 2.6 5.3 2.3 7.7z"/><path class="st1" d="M6.8 35.7c2.2-.5 7-.2 12.5 3.9.2 2 .3 2.8.3 2.8-2.4-2-7.3-5.2-12.8-4.8-1.7.1-2.1-.2-1.9-1.9C5.3 30.2 2 25.4 0 23c0 0 .9.1 2.8.3 4.3 5.5 4.4 10.2 4 12.4zM13.1 14c.1 1.8-.4 2.8-1.2 4l2.2-.3c.6-1.2.6-2.6.6-3.2.6.1 2 0 3.2-.6l.3-2.2c-1.2.8-2.3 1.3-4.1 1.2-.7.1-1 .4-1 1.1z"/><path class="st1" d="M10.9 10.8c.3 2.4-.3 5.1-2.2 7.6l-2.7.3c1.7-2.5 3.2-4.7 3-8.3-.1-1.2.3-1.6 1.5-1.5 3.7.1 5.9-1.3 8.4-3l-.3 2.7c-2.6 1.8-5.3 2.5-7.7 2.2z"/><path class="st1" d="M6.8 6.7c.5 2.2.2 6.9-4 12.4-2 .2-2.8.3-2.8.3C2 17 5.3 12.2 4.9 6.7c-.2-1.7.2-2 1.9-1.9C12.3 5.3 17.2 2 19.6 0c0 0-.1.9-.3 2.8C13.8 7 9 7.2 6.8 6.7z"/><path class="st0" d="M215.1 34.7c0-1.9 1.3-2.8 2.6-2.8s2.6.9 2.6 2.8-1.3 2.8-2.6 2.8-2.6-.9-2.6-2.8zm4.7 0c0-1.4-.9-2.3-2.1-2.3-1.3 0-2.1.9-2.1 2.3s.9 2.3 2.1 2.3c1.2 0 2.1-.9 2.1-2.3zm-3-1.4h.9c.6 0 .9.4.9.8s-.2.6-.5.7c.1 0 .1.1.1.2l.5 1h-.6l-.4-.9c-.1-.1-.1-.2-.2-.2h-.2V36h-.5v-2.7zm.9 1.3c.3 0 .4-.1.4-.4 0-.3-.1-.4-.4-.4h-.4v.8h.4z"/></svg>